<?xml version="1.0" encoding="iso-8859-1"?>
<!-- Generator: Adobe Illustrator 19.0.0, SVG Export Plug-In . SVG Version: 6.00 Build 0)  -->
<svg version="1.1" id="Layer_1" xmlns="http://www.w3.org/2000/svg" xmlns:xlink="http://www.w3.org/1999/xlink" x="0px" y="0px"
	 viewBox="0 0 458.31 458.31" style="enable-background:new 0 0 458.31 458.31;" xml:space="preserve">
<g>
	<g>
		<g>
			<path d="M427.462,0.374H188.806c-4.608,0-8.979,1.023-12.909,2.842C165.32,8.112,157.96,18.82,157.96,31.221v15.423
				c7.953,0,184.574,0,192.378,0c34.192,0,62.009,27.817,62.009,62.009c0,8.963,0,182.604,0,191.496v0.575h15.116
				c16.923,0,30.847-13.772,30.847-30.846V31.221C458.309,14.212,444.472,0.374,427.462,0.374z"/>
			<path d="M350.338,77.806H111.682c-17.009,0-30.846,13.838-30.846,30.847v17.771c13.184,0,183.023,0,188.667,0
				c34.192,0,62.009,27.817,62.009,62.009c0,6.116,0,175.962,0,189.722h18.827c17.009,0,30.847-13.838,30.847-30.846V108.653
				C381.185,91.644,367.347,77.806,350.338,77.806z"/>
			<path d="M269.503,157.586H30.847C13.838,157.586,0,171.424,0,188.433V427.09c0,17.008,13.838,30.846,30.847,30.846h238.656
				c17.009,0,30.847-13.838,30.847-30.846V188.433C300.349,171.424,286.512,157.586,269.503,157.586z"/>
		</g>
	</g>
</g>
<g>
</g>
<g>
</g>
<g>
</g>
<g>
</g>
<g>
</g>
<g>
</g>
<g>
</g>
<g>
</g>
<g>
</g>
<g>
</g>
<g>
</g>
<g>
</g>
<g>
</g>
<g>
</g>
<g>
</g>
</svg>
