<?xml version="1.0" encoding="iso-8859-1"?>
<!-- Generator: Adobe Illustrator 18.1.1, SVG Export Plug-In . SVG Version: 6.00 Build 0)  -->
<svg version="1.1" id="Capa_1" xmlns="http://www.w3.org/2000/svg" xmlns:xlink="http://www.w3.org/1999/xlink" x="0px" y="0px"
	 viewBox="0 0 14.098 14.098" style="enable-background:new 0 0 14.098 14.098;" xml:space="preserve">
<g>
	<g>
		<path d="M13.198,0H0.901C0.404,0,0,0.403,0,0.9v12.299c0,0.496,0.404,0.9,0.901,0.9h12.298
			c0.497,0,0.9-0.404,0.9-0.9V0.901C14.098,0.403,13.694,0,13.198,0z M11.209,9.601l-1.608,1.607c-0.078,0.078-0.202,0.078-0.28,0
			L7.049,8.936l-2.272,2.273c-0.078,0.077-0.202,0.077-0.28,0L2.889,9.601c-0.077-0.078-0.077-0.202,0-0.28L5.16,7.049L2.888,4.777
			c-0.077-0.078-0.077-0.202,0-0.28l1.608-1.608c0.078-0.078,0.202-0.078,0.28,0l2.272,2.272L9.32,2.889
			c0.078-0.078,0.202-0.078,0.28,0l1.607,1.608c0.078,0.078,0.078,0.202,0,0.28l-2.27,2.272l2.272,2.272
			C11.286,9.399,11.286,9.523,11.209,9.601z"/>
	</g>
</g>
<g>
</g>
<g>
</g>
<g>
</g>
<g>
</g>
<g>
</g>
<g>
</g>
<g>
</g>
<g>
</g>
<g>
</g>
<g>
</g>
<g>
</g>
<g>
</g>
<g>
</g>
<g>
</g>
<g>
</g>
</svg>
