<svg id="Capa_1" enable-background="new 0 0 512 512" viewBox="0 0 512 512" xmlns="http://www.w3.org/2000/svg">
    <g>
        <g>
            <path d="m507.296 196.528v274.389c0 22.695-18.389 41.084-41.073 41.084h-337.487c-19.388 0-35.634-13.434-39.951-31.503l-.165-23.488-.958-139.878v-276.048c.001-22.695 18.39-41.084 41.074-41.084h182.033c16.359 0 69.341 45.173 116.173 92.747 42.732 43.422 80.354 88.843 80.354 103.781z" fill="#ddeafb"/>
            <path d="m507.296 196.528v100.515c0-.113-.01-.227-.01-.35-3.091-123.333-103.554-129.04-136.406-161.893l56.062-42.052c42.732 43.421 80.354 88.842 80.354 103.78z" fill="#cbe2ff"/>
            <path d="m310.764 0h-100.515c.113 0 .227.01.35.01 123.333 3.091 129.041 103.554 161.893 136.407l42.052-56.062c-43.422-42.733-88.843-80.355-103.78-80.355z" fill="#cbe2ff"/>
            <path d="m507.296 196.533v17.377c0-36.586-29.667-66.253-66.253-66.253h-40.324c-22.684 0-41.081-18.397-41.081-41.081v-40.323c0-36.586-29.667-66.253-66.253-66.253h17.377c31.29 0 61.308 12.433 83.433 34.557l78.543 78.543c22.125 22.125 34.558 52.143 34.558 83.433z" fill="#bed8fb"/>
        </g>
        <g fill="#80b4fb">
            <path d="m437.942 193.952h-280.919c-4.268 0-7.726-3.459-7.726-7.726s3.459-7.726 7.726-7.726h280.919c4.268 0 7.726 3.459 7.726 7.726s-3.459 7.726-7.726 7.726z"/>
            <path d="m260.217 115.737h-103.194c-4.268 0-7.726-3.459-7.726-7.726s3.459-7.726 7.726-7.726h103.194c4.268 0 7.726 3.459 7.726 7.726.001 4.266-3.458 7.726-7.726 7.726z"/>
        </g>
        <g>
            <path d="m266.898 303.961c-2.774-4.805-5.823-9.353-9.112-13.637-3.698-4.816-4.442-11.273-1.971-16.819l4.588-10.297c3.458-7.762.497-16.882-6.862-21.131l-34.01-19.636c-7.359-4.249-16.738-2.254-21.731 4.622l-6.629 9.13c-3.571 4.918-9.546 7.503-15.57 6.7-10.787-1.438-21.796-1.468-32.738-.016-6.011.798-11.969-1.799-15.532-6.706l-6.613-9.108c-4.993-6.876-14.372-8.871-21.731-4.622l-34.01 19.636c-7.359 4.249-10.321 13.369-6.862 21.131l4.581 10.282c2.468 5.539 1.738 11.997-1.959 16.804-6.729 8.75-12.207 18.299-16.355 28.36-2.317 5.619-7.543 9.501-13.588 10.134l-11.221 1.176c-8.451.886-14.869 8.011-14.869 16.508v39.271c0 8.497 6.417 15.623 14.869 16.508l11.212 1.175c6.038.633 11.259 4.507 13.58 10.117 2.066 4.991 4.48 9.905 7.254 14.71s5.823 9.353 9.113 13.637c3.698 4.816 4.442 11.273 1.971 16.819l-4.588 10.297c-3.458 7.762-.497 16.882 6.862 21.131l34.01 19.635c7.359 4.249 16.738 2.254 21.731-4.622l6.629-9.13c3.571-4.918 9.546-7.503 15.57-6.7 10.787 1.438 21.796 1.468 32.738.016 6.011-.798 11.969 1.799 15.532 6.706l6.613 9.108c4.993 6.876 14.372 8.871 21.731 4.622l34.01-19.636c7.359-4.249 10.321-13.369 6.862-21.131l-4.581-10.281c-2.468-5.539-1.738-11.997 1.959-16.804 6.729-8.75 12.207-18.299 16.355-28.36 2.317-5.619 7.543-9.501 13.588-10.134l11.221-1.176c8.451-.886 14.869-8.011 14.869-16.508v-39.271c0-8.497-6.417-15.623-14.869-16.508l-11.212-1.175c-6.038-.633-11.259-4.507-13.58-10.117-2.067-4.991-4.481-9.905-7.255-14.71z" fill="#617881"/>
            <path d="m219.624 509.72-.095.053c-7.364 4.25-16.736 2.251-21.733-4.629l-6.617-9.11c-1.967-2.725-4.681-4.734-7.742-5.849 2.998-.168 6.007-.452 9.004-.852 6.017-.799 11.971 1.799 15.537 6.701l6.606 9.11c1.389 1.915 3.114 3.451 5.04 4.576z" fill="#617881"/>
            <circle cx="159.258" cy="366.107" fill="#475959" r="80.868"/>
            <circle cx="159.258" cy="366.107" fill="#ddeafb" r="32.276"/>
        </g>
    </g>
</svg>
