<?xml version="1.0" encoding="iso-8859-1"?>
<!-- Generator: Adobe Illustrator 19.0.0, SVG Export Plug-In . SVG Version: 6.00 Build 0)  -->
<svg version="1.1" id="Layer_1" xmlns="http://www.w3.org/2000/svg" xmlns:xlink="http://www.w3.org/1999/xlink" x="0px" y="0px"
	 viewBox="0 0 501.379 501.379" style="enable-background:new 0 0 501.379 501.379;" xml:space="preserve">
<path style="fill:#EF9F2C;" d="M406.423,93.889H205.889c-17.067,0-30.933-13.867-30.933-30.933s-13.867-30.933-30.933-30.933H30.956
	c-17.067,0-30.933,13.867-30.933,30.933v375.467c0,17.067,13.867,30.933,30.933,30.933h375.467
	c17.067,0,30.933-13.867,30.933-30.933v-313.6C436.289,107.756,422.423,93.889,406.423,93.889z"/>
<path style="fill:#FEC656;" d="M470.423,157.889H97.089c-13.867,0-26.667,9.6-29.867,22.4l-66.133,249.6
	c-5.333,19.2,9.6,38.4,29.867,38.4h373.333c13.867,0,26.667-9.6,29.867-22.4l66.133-248.533
	C505.623,177.089,490.689,157.889,470.423,157.889z"/>
<g>
</g>
<g>
</g>
<g>
</g>
<g>
</g>
<g>
</g>
<g>
</g>
<g>
</g>
<g>
</g>
<g>
</g>
<g>
</g>
<g>
</g>
<g>
</g>
<g>
</g>
<g>
</g>
<g>
</g>
</svg>
