<svg viewBox="-66 0 512 512.001" xmlns="http://www.w3.org/2000/svg"><path d="m190.390625 103.976562c-47.648437 0-86.414063 38.765626-86.414063 86.410157 0 47.648437 38.765626 86.414062 86.414063 86.414062s86.410156-38.765625 86.410156-86.414062c0-47.644531-38.765625-86.410157-86.410156-86.410157zm0 0"/><path d="m191.167969.00390625-.800781-.00390625c-104.96875 0-190.367188 85.40625-190.367188 190.386719 0 57.554687 29.417969 102.445312 62.195312 147.148437l127.917969 174.464844s120.90625-164.148438 128.46875-174.460938c32.777344-44.703124 62.195313-89.59375 62.195313-147.148437 0-104.722656-84.980469-189.972656-189.609375-190.38671875zm-.777344 306.78906275c-64.1875 0-116.40625-52.21875-116.40625-116.40625 0-64.183594 52.21875-116.402344 116.40625-116.402344s116.40625 52.21875 116.40625 116.402344c0 64.1875-52.222656 116.40625-116.40625 116.40625zm0 0"/></svg>