<svg xmlns="http://www.w3.org/2000/svg" width="64" height="64" shape-rendering="geometricPrecision" text-rendering="geometricPrecision" image-rendering="optimizeQuality" fill-rule="evenodd" clip-rule="evenodd" viewBox="0 0 640 640"><path d="M67.713 0h504.573C609.54 0 640 30.461 640 67.713v504.573C640 609.54 609.539 640 572.286 640H67.713C30.461 640 0 609.539 0 572.286V67.713C0 30.461 30.461 0 67.713 0zm382.894 126.273l61.23 61.24c8.055 8.08 8.055 21.308 0 29.352l-33.899 33.898-90.615-90.604 33.875-33.886c8.09-8.09 21.307-8.09 29.41 0zM246.321 482.214c-24.508 7.571-49.04 15.142-73.548 22.736-57.65 17.812-57.367 29.694-41.67-25.795l24.792-87.38-.083-.094 214.373-214.385 90.592 90.592L246.44 482.284l-.118-.07zm-74.977-74.977l59.505 59.504c-16.099 4.95-32.197 9.91-48.332 14.918-37.854 11.598-37.654 19.465-27.378-16.985l16.205-57.437zM439.73 162.344l36.048 35.988-13.028 13.028-36-36.048 12.98-12.968z"/></svg>