<svg id="Layer_1" height="512" viewBox="0 0 128 128" width="512" xmlns="http://www.w3.org/2000/svg" data-name="Layer 1"><path d="m83.9 22.125h-39.8a1.751 1.751 0 0 1 -1.75-1.75v-13.875a1.751 1.751 0 0 1 1.75-1.75h39.8a1.75 1.75 0 0 1 1.75 1.75v13.875a1.75 1.75 0 0 1 -1.75 1.75zm-38.058-3.5h36.312v-10.375h-36.308z" fill="#e77664"/><path d="m98.75 121.5h-69.5l-5.058-93.75h79.616z" fill="#e6e9ed"/><path d="m18.5 18.667h91v12.641h-91z" fill="#ff826e"/><g fill="#e77664"><path d="m46.667 96.559a1.75 1.75 0 0 1 -1.75-1.75v-42.142a1.75 1.75 0 0 1 3.5 0v42.142a1.751 1.751 0 0 1 -1.75 1.75z"/><path d="m64 96.559a1.751 1.751 0 0 1 -1.75-1.75v-42.142a1.75 1.75 0 0 1 3.5 0v42.142a1.751 1.751 0 0 1 -1.75 1.75z"/><path d="m81.333 96.559a1.75 1.75 0 0 1 -1.75-1.75v-42.142a1.75 1.75 0 0 1 3.5 0v42.142a1.75 1.75 0 0 1 -1.75 1.75z"/></g></svg>