<?xml version="1.0" encoding="iso-8859-1"?>
<!-- Generator: Adobe Illustrator 19.0.0, SVG Export Plug-In . SVG Version: 6.00 Build 0)  -->
<svg version="1.1" id="Layer_1" xmlns="http://www.w3.org/2000/svg" xmlns:xlink="http://www.w3.org/1999/xlink" x="0px" y="0px"
	 viewBox="0 0 512 512" style="enable-background:new 0 0 512 512;" xml:space="preserve">
<g>
	<path style="fill:#B4BBCC;" d="M300.851,0h-89.699c-10.856,0-19.656,8.8-19.656,19.656v61.716h129.009V19.656
		C320.505,8.8,311.705,0,300.851,0z"/>
	<polygon style="fill:#B4BBCC;" points="399.644,512 112.359,512 88.97,81.372 423.032,81.372 	"/>
</g>
<polygon style="opacity:0.1;enable-background:new    ;" points="423.032,81.372 88.969,81.372 92.78,151.537 419.221,151.537 "/>
<g>
	<path style="fill:#C7CFE2;" d="M417.355,46.942H94.647c-23.774,0-43.049,19.273-43.049,43.049v26.465h408.804V89.989
		C460.403,66.215,441.13,46.942,417.355,46.942z"/>
	<path style="fill:#C7CFE2;" d="M256.001,446.263c-12.917,0-23.388-10.471-23.388-23.388V205.58
		c0-12.917,10.471-23.388,23.388-23.388c12.917,0,23.388,10.471,23.388,23.388v217.295
		C279.39,435.792,268.919,446.263,256.001,446.263z"/>
	<path style="fill:#C7CFE2;" d="M174.13,446.263c-12.627,0-23.026-10.061-23.369-22.759l-5.847-217.294
		c-0.347-12.913,9.838-23.661,22.751-24.009c12.933-0.357,23.661,9.838,24.009,22.751l5.847,217.294
		c0.347,12.913-9.838,23.661-22.751,24.009C174.557,446.261,174.343,446.263,174.13,446.263z"/>
	<path style="fill:#C7CFE2;" d="M337.871,446.263c-0.213,0-0.426-0.002-0.641-0.008c-12.913-0.349-23.098-11.097-22.751-24.009
		l5.847-217.294c0.343-12.698,10.743-22.759,23.369-22.759c0.213,0,0.426,0.002,0.641,0.008
		c12.913,0.348,23.098,11.097,22.751,24.009l-5.847,217.294C360.898,436.202,350.497,446.263,337.871,446.263z"/>
</g>
<g>
</g>
<g>
</g>
<g>
</g>
<g>
</g>
<g>
</g>
<g>
</g>
<g>
</g>
<g>
</g>
<g>
</g>
<g>
</g>
<g>
</g>
<g>
</g>
<g>
</g>
<g>
</g>
<g>
</g>
</svg>
